<?xml version="1.0" encoding="UTF-8" standalone="no"?>
<svg
   xmlns:dc="http://purl.org/dc/elements/1.1/"
   xmlns:cc="http://creativecommons.org/ns#"
   xmlns:rdf="http://www.w3.org/1999/02/22-rdf-syntax-ns#"
   xmlns:svg="http://www.w3.org/2000/svg"
   xmlns="http://www.w3.org/2000/svg"
   xmlns:xlink="http://www.w3.org/1999/xlink"
   xmlns:sodipodi="http://sodipodi.sourceforge.net/DTD/sodipodi-0.dtd"
   xmlns:inkscape="http://www.inkscape.org/namespaces/inkscape"
   version="1.1"
   id="Ebene_1"
   x="0px"
   y="0px"
   viewBox="0 0 168.08429 102.03898"
   xml:space="preserve"
   sodipodi:docname="mde-Logo_Sonne.svg"
   width="168.08429"
   height="102.03898"
   inkscape:version="1.0.1 (3bc2e813f5, 2020-09-07)"><metadata
   id="metadata27"><rdf:RDF><cc:Work
       rdf:about=""><dc:format>image/svg+xml</dc:format><dc:type
         rdf:resource="http://purl.org/dc/dcmitype/StillImage" /></cc:Work></rdf:RDF></metadata><defs
   id="defs25" /><sodipodi:namedview
   pagecolor="#ffffff"
   bordercolor="#666666"
   borderopacity="1"
   objecttolerance="10"
   gridtolerance="10"
   guidetolerance="10"
   inkscape:pageopacity="0"
   inkscape:pageshadow="2"
   inkscape:window-width="3440"
   inkscape:window-height="1377"
   id="namedview23"
   showgrid="false"
   inkscape:object-paths="true"
   inkscape:zoom="8.5172317"
   inkscape:cx="155.03283"
   inkscape:cy="59.788726"
   inkscape:window-x="1912"
   inkscape:window-y="-8"
   inkscape:window-maximized="1"
   inkscape:current-layer="g16" />
<style
   type="text/css"
   id="style2">
	.st0{fill:#FFE500;}
	.st1{clip-path:url(#SVGID_2_);}
	.st2{fill:#005A9F;}
</style>
<title
   id="title4">05_MUCDE_Logo_Pos_RGB_1</title>

<g
   id="g18"
   transform="translate(-0.00786135)">
	<defs
   id="defs9">
		<path
   id="SVGID_1_"
   d="M 163.9,110.5 C 178.5,66.4 154.5,18.9 110.5,4.3 66.5,-10.3 18.8,13.6 4.2,57.7 c -5.7,17.1 -5.7,35.6 0,52.8 z" />
	</defs>
	<clipPath
   id="SVGID_2_">
		<use
   xlink:href="#SVGID_1_"
   style="overflow:visible"
   id="use11"
   x="0"
   y="0"
   width="100%"
   height="100%" />
	</clipPath>
	<g
   class="st1"
   clip-path="url(#SVGID_2_)"
   id="g16">
		<rect
   x="0.0078613469"
   y="0"
   class="st0"
   width="168.08429"
   height="102.03898"
   id="rect14"
   style="stroke-width:0.961342" />
	</g>
</g>
<path
   class="st2"
   d="M 137.59214,102 V 89.2 l -0.5,-5.6 h -0.2 l -0.6,5.8 v 2.3 l -1.7,-2.8 V 75.1 l -0.4,-5.3 h -0.3 l -0.6,4.2 -1.5,-1.2 -3.8,-31 c 0.7,-0.2 1.2,-0.9 1.2,-1.7 0,-0.3 -0.1,-0.6 -0.2,-0.8 l 1.2,-1.6 -0.2,-0.3 -1.9,1 -0.2,-0.1 c 0.3,-0.1 0.5,-0.4 0.5,-0.8 0,-0.5 -0.4,-0.9 -0.9,-0.9 -0.5,0 -0.9,0.4 -0.9,0.9 0,0.3 0.2,0.7 0.5,0.8 l -0.3,0.1 -1.9,-1 -0.2,0.3 1.2,1.6 c -0.5,0.8 -0.2,1.9 0.6,2.3 0.1,0.1 0.2,0.1 0.4,0.2 l -3.8,30.9 -1.6,1.2 -0.5,-4.1 h -0.3 l -0.4,5.3 v 13.7 l -1.7,2.8 v -2.3 l -0.6,-5.8 h -0.2 l -0.5,5.6 V 102 H 91.592139 v -5 l -2.3,-2.3 V 77 l -0.6,-0.9 v -16 l -0.8,-1.5 v -2.3 l 0.4,-0.4 -0.3,-0.8 v -7.6 c 1.1,-1.7 1.7,-3.6 1.7,-5.6 0,-5.8 -4.8,-10.5 -11,-11.2 -0.8,-0.5 -1,-1.9 -1,-2.8 0.7,-0.1 1.1,-0.8 0.9,-1.5 -0.1,-0.7 -0.8,-1.1 -1.5,-0.9 -0.7,0.2 -1.1,0.9 -0.9,1.5 0.1,0.5 0.5,0.8 0.9,0.9 0,0.9 -0.2,2.3 -1,2.8 -6.2,0.6 -11,5.4 -11,11.2 0,2 0.5,3.9 1.5,5.6 v 7.6 l -0.3,0.8 0.4,0.4 v 2.3 l -0.8,1.6 v 16 l -0.6,0.9 v 17.6 l -2.2,2.1 -2.1,-2.1 V 77 l -0.6,-0.9 v -16 l -0.8,-1.6 v -2.3 l 0.4,-0.4 -0.4,-0.8 v -7.6 c 1.1,-1.7 1.6,-3.6 1.6,-5.6 0,-5.8 -4.8,-10.5 -11,-11.2 -0.8,-0.5 -1,-1.9 -1,-2.8 0.7,-0.1 1.1,-0.8 0.9,-1.5 -0.1,-0.7 -0.8,-1.1 -1.5,-0.9 -0.7,0.2 -1.1,0.8 -0.9,1.5 0.1,0.5 0.5,0.8 0.9,0.9 0,0.9 -0.2,2.3 -1,2.8 v 0 c -6.2,0.6 -11,5.4 -11,11.2 0,2 0.6,3.9 1.6,5.6 V 55 l -0.2,0.8 0.4,0.4 v 2.3 l -0.8,1.6 v 16 l -0.6,0.9 v 17.7 l -2.4,2.3 v 5 c 69.287311,0 15.857367,0 103.000001,0 z m -17,-4.4 h -1.8 v -3 l 0.9,-1.6 0.9,1.6 z m 2.4,-20.9 h -1.1 v -1.9 l 1.1,-0.9 z m 4.5,-35.9 c -0.5,0 -0.8,-0.4 -0.8,-0.8 0,-0.4 0.4,-0.8 0.8,-0.8 0.4,0 0.8,0.4 0.8,0.8 0,0.4 -0.3,0.8 -0.8,0.8 z m 5.6,35.9 h -1.1 v -2.8 l 1.1,0.9 z m 3,20.9 h -1.8 v -3 l 0.9,-1.6 0.9,1.6 z"
   id="path20"
   sodipodi:nodetypes="cccccccccccccscccccsssccccccccccccccccccccccccccccccscccscccscccccccccccccccccccscccsccssscccccccccccccccccccccccsssssccccccccccc" />
</svg>
